<svg xmlns="http://www.w3.org/2000/svg" xmlns:xlink="http://www.w3.org/1999/xlink" width="500" zoomAndPan="magnify" viewBox="0 0 375 374.999991" height="500" preserveAspectRatio="xMidYMid meet" version="1.0"><defs><clipPath id="206a39fc9d"><path d="M 112.5 107.894531 L 262.5 107.894531 L 262.5 257.894531 L 112.5 257.894531 Z M 112.5 107.894531 " clip-rule="nonzero"/></clipPath><clipPath id="660db7c349"><path d="M 124.777344 172 L 250.027344 172 L 250.027344 242.074219 L 124.777344 242.074219 Z M 124.777344 172 " clip-rule="nonzero"/></clipPath><clipPath id="48c7ae2ad8"><path d="M 124.777344 165 L 250.027344 165 L 250.027344 236 L 124.777344 236 Z M 124.777344 165 " clip-rule="nonzero"/></clipPath><clipPath id="5a407149d7"><path d="M 166 116.824219 L 205 116.824219 L 205 176 L 166 176 Z M 166 116.824219 " clip-rule="nonzero"/></clipPath><clipPath id="07008ed02b"><path d="M 173.3125 194 L 182 194 L 182 218 L 173.3125 218 Z M 173.3125 194 " clip-rule="nonzero"/></clipPath></defs><g clip-path="url(#206a39fc9d)"><path fill="#ffcc4d" d="M 262.5 182.894531 C 262.5 224.316406 228.921875 257.894531 187.5 257.894531 C 146.082031 257.894531 112.5 224.316406 112.5 182.894531 C 112.5 141.480469 146.082031 107.894531 187.5 107.894531 C 228.921875 107.894531 262.5 141.480469 262.5 182.894531 " fill-opacity="1" fill-rule="nonzero"/></g><path fill="#664500" d="M 170.832031 176.644531 C 170.832031 177.605469 170.765625 178.550781 170.632812 179.492188 C 170.5 180.429688 170.300781 181.34375 170.039062 182.226562 C 169.777344 183.113281 169.457031 183.953125 169.078125 184.75 C 168.699219 185.542969 168.265625 186.28125 167.78125 186.957031 C 167.296875 187.636719 166.773438 188.238281 166.203125 188.773438 C 165.636719 189.304688 165.035156 189.753906 164.402344 190.121094 C 163.769531 190.484375 163.121094 190.761719 162.449219 190.949219 C 161.777344 191.136719 161.101562 191.230469 160.417969 191.230469 C 159.734375 191.230469 159.054688 191.136719 158.382812 190.949219 C 157.714844 190.761719 157.0625 190.484375 156.429688 190.121094 C 155.796875 189.753906 155.199219 189.304688 154.628906 188.773438 C 154.0625 188.238281 153.535156 187.636719 153.050781 186.957031 C 152.566406 186.28125 152.136719 185.542969 151.753906 184.75 C 151.375 183.953125 151.054688 183.113281 150.792969 182.226562 C 150.53125 181.34375 150.332031 180.429688 150.199219 179.492188 C 150.066406 178.550781 150 177.605469 150 176.644531 C 150 175.6875 150.066406 174.742188 150.199219 173.800781 C 150.332031 172.863281 150.53125 171.949219 150.792969 171.066406 C 151.054688 170.179688 151.375 169.339844 151.753906 168.542969 C 152.136719 167.746094 152.566406 167.011719 153.050781 166.335938 C 153.535156 165.65625 154.0625 165.050781 154.628906 164.519531 C 155.199219 163.988281 155.796875 163.539062 156.429688 163.171875 C 157.0625 162.804688 157.714844 162.53125 158.382812 162.34375 C 159.054688 162.15625 159.734375 162.0625 160.417969 162.0625 C 161.101562 162.0625 161.777344 162.15625 162.449219 162.34375 C 163.121094 162.53125 163.769531 162.804688 164.402344 163.171875 C 165.035156 163.539062 165.636719 163.988281 166.203125 164.519531 C 166.773438 165.050781 167.296875 165.65625 167.78125 166.335938 C 168.265625 167.011719 168.699219 167.746094 169.078125 168.542969 C 169.457031 169.339844 169.777344 170.179688 170.039062 171.066406 C 170.300781 171.949219 170.5 172.863281 170.632812 173.800781 C 170.765625 174.742188 170.832031 175.6875 170.832031 176.644531 Z M 170.832031 176.644531 " fill-opacity="1" fill-rule="nonzero"/><path fill="#664500" d="M 225 176.644531 C 225 177.605469 224.933594 178.550781 224.800781 179.492188 C 224.667969 180.429688 224.46875 181.34375 224.207031 182.226562 C 223.945312 183.113281 223.625 183.953125 223.246094 184.75 C 222.863281 185.542969 222.433594 186.28125 221.949219 186.957031 C 221.464844 187.636719 220.9375 188.238281 220.371094 188.773438 C 219.800781 189.304688 219.203125 189.753906 218.570312 190.121094 C 217.9375 190.484375 217.285156 190.761719 216.617188 190.949219 C 215.945312 191.136719 215.265625 191.230469 214.582031 191.230469 C 213.898438 191.230469 213.222656 191.136719 212.550781 190.949219 C 211.878906 190.761719 211.230469 190.484375 210.597656 190.121094 C 209.964844 189.753906 209.363281 189.304688 208.796875 188.773438 C 208.226562 188.238281 207.703125 187.636719 207.21875 186.957031 C 206.734375 186.28125 206.300781 185.542969 205.921875 184.75 C 205.542969 183.953125 205.222656 183.113281 204.960938 182.226562 C 204.699219 181.34375 204.5 180.429688 204.367188 179.492188 C 204.234375 178.550781 204.167969 177.605469 204.167969 176.644531 C 204.167969 175.6875 204.234375 174.742188 204.367188 173.800781 C 204.5 172.863281 204.699219 171.949219 204.960938 171.066406 C 205.222656 170.179688 205.542969 169.339844 205.921875 168.542969 C 206.300781 167.746094 206.734375 167.011719 207.21875 166.335938 C 207.703125 165.65625 208.226562 165.050781 208.796875 164.519531 C 209.363281 163.988281 209.964844 163.539062 210.597656 163.171875 C 211.230469 162.804688 211.878906 162.53125 212.550781 162.34375 C 213.222656 162.15625 213.898438 162.0625 214.582031 162.0625 C 215.265625 162.0625 215.945312 162.15625 216.617188 162.34375 C 217.285156 162.53125 217.9375 162.804688 218.570312 163.171875 C 219.203125 163.539062 219.800781 163.988281 220.371094 164.519531 C 220.9375 165.050781 221.464844 165.65625 221.949219 166.335938 C 222.433594 167.011719 222.863281 167.746094 223.246094 168.542969 C 223.625 169.339844 223.945312 170.179688 224.207031 171.066406 C 224.46875 171.949219 224.667969 172.863281 224.800781 173.800781 C 224.933594 174.742188 225 175.6875 225 176.644531 Z M 225 176.644531 " fill-opacity="1" fill-rule="nonzero"/><path stroke-linecap="round" transform="matrix(2.147288, 0, 0, 2.146875, 100.612798, 97.080454)" fill="none" stroke-linejoin="round" d="M 75.500613 39.500369 C 75.500613 40.064415 75.48606 40.628462 75.456954 41.192508 C 75.429666 41.756555 75.387826 42.320602 75.331432 42.881009 C 75.275038 43.443236 75.20591 44.003644 75.12041 44.562232 C 75.036729 45.12082 74.938495 45.677588 74.827526 46.230718 C 74.716558 46.783847 74.591036 47.335157 74.450961 47.882828 C 74.312705 48.430499 74.159896 48.974531 73.992534 49.514924 C 73.826991 50.055317 73.646895 50.590252 73.454064 51.123367 C 73.261234 51.654662 73.055669 52.180499 72.835551 52.702697 C 72.617253 53.224895 72.384401 53.739815 72.138815 54.251096 C 71.895048 54.760557 71.636728 55.26456 71.367493 55.763105 C 71.096439 56.261649 70.81447 56.752915 70.519767 57.236904 C 70.226883 57.720892 69.919446 58.197602 69.601094 58.667035 C 69.282742 59.136467 68.953475 59.598621 68.611474 60.051678 C 68.271292 60.504735 67.918376 60.950513 67.554545 61.387195 C 67.192533 61.823876 66.817787 62.24964 66.433945 62.668126 C 66.048284 63.086612 65.653528 63.496001 65.247856 63.894472 C 64.844004 64.294764 64.429236 64.684138 64.005373 65.062595 C 63.579691 65.442871 63.146732 65.810411 62.702858 66.168854 C 62.260804 66.527296 61.809653 66.874822 61.349407 67.21143 C 60.889161 67.546219 60.421638 67.87191 59.945019 68.184865 C 59.468401 68.49964 58.984506 68.801677 58.493334 69.090979 C 58.002162 69.3821 57.503713 69.660484 56.997988 69.926132 C 56.494082 70.191779 55.9829 70.44651 55.464441 70.688504 C 54.945982 70.928679 54.423884 71.157936 53.89451 71.374458 C 53.365136 71.589159 52.830304 71.792944 52.291834 71.983992 C 51.751545 72.17322 51.207618 72.349712 50.660052 72.515287 C 50.112487 72.679043 49.559464 72.828242 49.004621 72.966524 C 48.44796 73.102987 47.889479 73.226714 47.327361 73.337703 C 46.767061 73.446874 46.201304 73.543308 45.635546 73.627005 C 45.069789 73.708882 44.500394 73.778024 43.930998 73.834428 C 43.359784 73.889013 42.788569 73.930862 42.217354 73.958155 C 41.64614 73.985447 41.073106 74.000003 40.500072 74.000003 C 39.927038 74.000003 39.354004 73.985447 38.78279 73.958155 C 38.209756 73.930862 37.638541 73.889013 37.069146 73.834428 C 36.49975 73.778024 35.930355 73.708882 35.364598 73.627005 C 34.797021 73.543308 34.233083 73.446874 33.670964 73.337703 C 33.110665 73.226714 32.552184 73.102987 31.995523 72.966524 C 31.44068 72.828242 30.887657 72.679043 30.340092 72.515287 C 29.792526 72.349712 29.248599 72.17322 28.70831 71.983992 C 28.16984 71.792944 27.635008 71.589159 27.105634 71.374458 C 26.57626 71.157936 26.054162 70.928679 25.535703 70.688504 C 25.017244 70.44651 24.506062 70.191779 24.000336 69.926132 C 23.496431 69.660484 22.997982 69.3821 22.50681 69.090979 C 22.015638 68.801677 21.531743 68.49964 21.055125 68.184865 C 20.578506 67.87191 20.110983 67.546219 19.650737 67.21143 C 19.190491 66.874822 18.73934 66.527296 18.295467 66.168854 C 17.853412 65.810411 17.420453 65.442871 16.994771 65.062595 C 16.570908 64.684138 16.15614 64.294764 15.750469 63.894472 C 15.346616 63.496001 14.95186 63.086612 14.566199 62.668126 C 14.182357 62.24964 13.807611 61.823876 13.44378 61.387195 C 13.081768 60.950513 12.728852 60.504735 12.386851 60.051678 C 12.046669 59.598621 11.717402 59.136467 11.39905 58.667035 C 11.080698 58.197602 10.773261 57.720892 10.480377 57.236904 C 10.185674 56.752915 9.901886 56.261649 9.632651 55.763105 C 9.363416 55.26456 9.105096 54.760557 8.85951 54.251096 C 8.615743 53.739815 8.382891 53.224895 8.164593 52.702697 C 7.944475 52.180499 7.73891 51.654662 7.54608 51.123367 C 7.353249 50.590252 7.173153 50.055317 7.00761 49.514924 C 6.840248 48.974531 6.687439 48.430499 6.549183 47.882828 C 6.409108 47.335157 6.283586 46.783847 6.172618 46.230718 C 6.061649 45.677588 5.963415 45.12082 5.877915 44.562232 C 5.794234 44.003644 5.725106 43.443236 5.668712 42.881009 C 5.612318 42.320602 5.570478 41.756555 5.541371 41.192508 C 5.514084 40.628462 5.499531 40.064415 5.499531 39.500369 C 5.499531 38.934503 5.514084 38.370456 5.541371 37.80641 C 5.570478 37.242363 5.612318 36.680136 5.668712 36.117909 C 5.725106 35.555682 5.794234 34.997094 5.877915 34.438506 C 5.963415 33.879918 6.061649 33.323149 6.172618 32.77002 C 6.283586 32.215071 6.409108 31.66558 6.549183 31.117909 C 6.687439 30.570238 6.840248 30.026206 7.00761 29.485813 C 7.173153 28.94542 7.353249 28.408666 7.54608 27.877371 C 7.73891 27.346075 7.944475 26.818419 8.164593 26.29804 C 8.382891 25.775842 8.615743 25.259103 8.85951 24.749642 C 9.105096 24.238361 9.363416 23.734358 9.632651 23.237633 C 9.901886 22.739089 10.185674 22.247822 10.480377 21.763834 C 10.773261 21.279846 11.080698 20.803135 11.39905 20.333703 C 11.717402 19.864271 12.046669 19.402116 12.386851 18.94906 C 12.728852 18.494183 13.081768 18.050224 13.44378 17.613543 C 13.807611 17.176862 14.182357 16.749278 14.566199 16.330792 C 14.95186 15.912306 15.346616 15.504737 15.750469 15.104446 C 16.15614 14.705974 16.570908 14.3166 16.994771 13.936323 C 17.420453 13.557866 17.853412 13.188507 18.295467 12.831884 C 18.73934 12.473441 19.190491 12.125916 19.650737 11.789307 C 20.110983 11.452699 20.578506 11.128827 21.055125 10.814053 C 21.531743 10.501098 22.015638 10.19906 22.50681 9.907939 C 22.997982 9.618638 23.496431 9.340254 24.000336 9.074606 C 24.506062 8.807139 25.017244 8.554228 25.535703 8.312233 C 26.054162 8.070239 26.57626 7.842801 27.105634 7.62628 C 27.635008 7.409759 28.16984 7.207794 28.70831 7.016746 C 29.248599 6.825698 29.792526 6.649206 30.340092 6.48545 C 30.887657 6.321695 31.44068 6.170676 31.995523 6.034213 C 32.552184 5.895931 33.110665 5.772204 33.670964 5.663034 C 34.233083 5.552044 34.797021 5.45561 35.364598 5.373733 C 35.930355 5.290036 36.49975 5.220894 37.069146 5.166309 C 37.638541 5.109905 38.209756 5.069875 38.78279 5.040763 C 39.354004 5.013471 39.927038 5.000734 40.500072 5.000734 C 41.073106 5.000734 41.64614 5.013471 42.217354 5.040763 C 42.788569 5.069875 43.359784 5.109905 43.930998 5.166309 C 44.500394 5.220894 45.069789 5.290036 45.635546 5.373733 C 46.201304 5.45561 46.767061 5.552044 47.327361 5.663034 C 47.889479 5.772204 48.44796 5.895931 49.004621 6.034213 C 49.559464 6.170676 50.112487 6.321695 50.660052 6.48545 C 51.207618 6.649206 51.751545 6.825698 52.291834 7.016746 C 52.830304 7.207794 53.365136 7.409759 53.89451 7.62628 C 54.423884 7.842801 54.945982 8.070239 55.464441 8.312233 C 55.9829 8.554228 56.494082 8.807139 56.997988 9.074606 C 57.503713 9.340254 58.002162 9.618638 58.493334 9.907939 C 58.984506 10.19906 59.468401 10.501098 59.945019 10.814053 C 60.421638 11.128827 60.889161 11.452699 61.349407 11.789307 C 61.809653 12.125916 62.260804 12.473441 62.702858 12.831884 C 63.146732 13.188507 63.579691 13.557866 64.005373 13.936323 C 64.429236 14.3166 64.844004 14.705974 65.247856 15.104446 C 65.653528 15.504737 66.048284 15.912306 66.433945 16.330792 C 66.817787 16.749278 67.192533 17.176862 67.554545 17.613543 C 67.918376 18.050224 68.271292 18.494183 68.611474 18.94906 C 68.953475 19.402116 69.282742 19.864271 69.601094 20.333703 C 69.919446 20.803135 70.226883 21.279846 70.519767 21.763834 C 70.81447 22.247822 71.096439 22.739089 71.367493 23.237633 C 71.636728 23.734358 71.895048 24.238361 72.138815 24.749642 C 72.384401 25.259103 72.617253 25.775842 72.835551 26.29804 C 73.055669 26.818419 73.261234 27.346075 73.454064 27.877371 C 73.646895 28.408666 73.826991 28.94542 73.992534 29.485813 C 74.159896 30.026206 74.312705 30.570238 74.450961 31.117909 C 74.591036 31.66558 74.716558 32.215071 74.827526 32.77002 C 74.938495 33.323149 75.036729 33.879918 75.12041 34.438506 C 75.20591 34.997094 75.275038 35.555682 75.331432 36.117909 C 75.387826 36.680136 75.429666 37.242363 75.456954 37.80641 C 75.48606 38.370456 75.500613 38.934503 75.500613 39.500369 Z M 75.500613 39.500369 " stroke="#98ff99" stroke-width="1.5" stroke-opacity="1" stroke-miterlimit="4"/><path fill="#98ff99" d="M 176.890625 164.679688 C 180.417969 163.8125 184.8125 164.054688 188.855469 167.355469 C 190.976562 169.089844 193.132812 169.257812 195.039062 168.828125 C 196.09375 168.59375 197 168.183594 197.691406 167.785156 C 198.375 167.390625 198.871094 166.988281 199.078125 166.75 C 200.28125 165.378906 202.390625 165.21875 203.792969 166.394531 C 205.191406 167.570312 205.355469 169.632812 204.152344 171.003906 C 202.761719 172.59375 199.921875 174.4375 196.542969 175.203125 C 192.972656 176.007812 188.578125 175.644531 184.574219 172.378906 C 182.488281 170.675781 180.410156 170.558594 178.523438 171.023438 C 176.480469 171.527344 174.808594 172.707031 174.210938 173.273438 C 172.882812 174.527344 170.769531 174.492188 169.484375 173.195312 C 168.203125 171.898438 168.238281 169.828125 169.566406 168.570312 C 170.847656 167.359375 173.519531 165.511719 176.890625 164.679688 Z M 176.890625 164.679688 " fill-opacity="1" fill-rule="nonzero"/><path fill="#98ff99" d="M 165.21875 159.585938 C 166.941406 160.269531 167.789062 162.175781 167.109375 163.84375 C 161.476562 177.679688 164.429688 193.054688 172.773438 201.722656 C 174.050781 203.046875 173.996094 205.109375 172.652344 206.332031 C 171.3125 207.550781 169.191406 207.46875 167.914062 206.144531 C 157.519531 195.34375 154.429688 177.1875 160.875 161.359375 C 161.550781 159.695312 163.5 158.902344 165.21875 159.585938 Z M 165.21875 159.585938 " fill-opacity="1" fill-rule="nonzero"/><path fill="#98ff99" d="M 208.425781 159.585938 C 206.703125 160.269531 205.855469 162.175781 206.535156 163.84375 C 212.167969 177.679688 209.214844 193.054688 200.871094 201.722656 C 199.597656 203.046875 199.648438 205.109375 200.992188 206.332031 C 202.332031 207.550781 204.453125 207.46875 205.730469 206.144531 C 216.128906 195.34375 219.214844 177.1875 212.769531 161.359375 C 212.09375 159.695312 210.148438 158.902344 208.425781 159.585938 Z M 208.425781 159.585938 " fill-opacity="1" fill-rule="nonzero"/><path fill="#98ff99" d="M 177.179688 207.59375 C 177.179688 205.789062 178.675781 204.324219 180.519531 204.324219 L 192.90625 204.324219 C 194.753906 204.324219 196.25 205.789062 196.25 207.59375 C 196.25 209.402344 194.753906 210.863281 192.90625 210.863281 L 180.519531 210.863281 C 178.675781 210.863281 177.179688 209.402344 177.179688 207.59375 Z M 177.179688 207.59375 " fill-opacity="1" fill-rule="nonzero"/><path fill="#98ff99" d="M 221.6875 173.003906 L 221.6875 172.78125 C 221.6875 170.976562 223.1875 169.511719 225.03125 169.511719 C 226.878906 169.511719 228.371094 170.976562 228.371094 172.78125 L 228.371094 173.003906 C 228.371094 174.808594 226.878906 176.273438 225.03125 176.273438 C 223.1875 176.273438 221.6875 174.808594 221.6875 173.003906 Z M 221.6875 173.003906 " fill-opacity="1" fill-rule="nonzero"/><path fill="#98ff99" d="M 221.710938 186.6875 C 221.90625 184.890625 223.550781 183.589844 225.382812 183.777344 C 227.21875 183.96875 228.550781 185.578125 228.359375 187.371094 C 227.972656 190.945312 226.976562 194.253906 226.097656 196.632812 C 225.65625 197.832031 225.238281 198.816406 224.925781 199.511719 C 224.75 199.902344 224.367188 200.683594 224.367188 200.683594 C 223.53125 202.277344 221.53125 202.914062 219.890625 202.109375 C 218.246094 201.296875 217.582031 199.332031 218.410156 197.71875 L 218.410156 197.714844 C 218.550781 197.4375 218.679688 197.15625 218.808594 196.875 C 219.070312 196.296875 219.429688 195.449219 219.8125 194.414062 C 220.582031 192.324219 221.402344 189.554688 221.710938 186.6875 Z M 221.710938 186.6875 " fill-opacity="1" fill-rule="nonzero"/><g clip-path="url(#660db7c349)"><path fill="#292f33" d="M 250.027344 207.28125 C 250.027344 208.421875 249.925781 209.558594 249.726562 210.691406 C 249.523438 211.828125 249.222656 212.953125 248.824219 214.070312 C 248.421875 215.1875 247.925781 216.292969 247.332031 217.382812 C 246.734375 218.472656 246.042969 219.542969 245.257812 220.597656 C 244.476562 221.648438 243.597656 222.679688 242.632812 223.683594 C 241.664062 224.6875 240.613281 225.664062 239.472656 226.613281 C 238.332031 227.558594 237.113281 228.472656 235.8125 229.355469 C 234.511719 230.234375 233.132812 231.078125 231.683594 231.882812 C 230.234375 232.691406 228.714844 233.453125 227.128906 234.175781 C 225.546875 234.898438 223.898438 235.578125 222.195312 236.210938 C 220.488281 236.84375 218.730469 237.429688 216.921875 237.964844 C 215.113281 238.503906 213.261719 238.992188 211.367188 239.425781 C 209.472656 239.863281 207.542969 240.246094 205.582031 240.578125 C 203.617188 240.90625 201.632812 241.183594 199.621094 241.40625 C 197.609375 241.628906 195.582031 241.796875 193.539062 241.90625 C 191.5 242.019531 189.453125 242.074219 187.402344 242.074219 C 185.351562 242.074219 183.304688 242.019531 181.261719 241.90625 C 179.222656 241.796875 177.195312 241.628906 175.183594 241.40625 C 173.171875 241.183594 171.183594 240.90625 169.222656 240.578125 C 167.261719 240.246094 165.332031 239.863281 163.4375 239.425781 C 161.542969 238.992188 159.6875 238.503906 157.878906 237.964844 C 156.070312 237.429688 154.316406 236.84375 152.609375 236.210938 C 150.902344 235.578125 149.257812 234.898438 147.671875 234.175781 C 146.085938 233.453125 144.570312 232.691406 143.121094 231.882812 C 141.667969 231.078125 140.292969 230.234375 138.992188 229.355469 C 137.691406 228.472656 136.46875 227.558594 135.332031 226.613281 C 134.191406 225.664062 133.136719 224.6875 132.171875 223.683594 C 131.203125 222.679688 130.328125 221.648438 129.542969 220.597656 C 128.757812 219.542969 128.070312 218.472656 127.472656 217.382812 C 126.878906 216.292969 126.378906 215.1875 125.980469 214.070312 C 125.578125 212.953125 125.28125 211.828125 125.078125 210.691406 C 124.878906 209.558594 124.777344 208.421875 124.777344 207.28125 C 124.777344 206.144531 124.878906 205.007812 125.078125 203.871094 C 125.28125 202.738281 125.578125 201.613281 125.980469 200.496094 C 126.378906 199.378906 126.878906 198.273438 127.472656 197.183594 C 128.070312 196.09375 128.757812 195.023438 129.542969 193.96875 C 130.328125 192.917969 131.203125 191.886719 132.171875 190.882812 C 133.136719 189.878906 134.191406 188.902344 135.332031 187.953125 C 136.46875 187.007812 137.691406 186.09375 138.992188 185.210938 C 140.292969 184.332031 141.667969 183.488281 143.121094 182.683594 C 144.570312 181.875 146.085938 181.113281 147.671875 180.390625 C 149.257812 179.664062 150.902344 178.988281 152.609375 178.355469 C 154.316406 177.722656 156.070312 177.136719 157.878906 176.597656 C 159.6875 176.0625 161.542969 175.574219 163.4375 175.140625 C 165.332031 174.703125 167.261719 174.320312 169.222656 173.988281 C 171.183594 173.660156 173.171875 173.382812 175.183594 173.160156 C 177.195312 172.9375 179.222656 172.769531 181.261719 172.660156 C 183.304688 172.546875 185.351562 172.492188 187.402344 172.492188 C 189.453125 172.492188 191.5 172.546875 193.539062 172.660156 C 195.582031 172.769531 197.609375 172.9375 199.621094 173.160156 C 201.632812 173.382812 203.617188 173.660156 205.582031 173.988281 C 207.542969 174.320312 209.472656 174.703125 211.367188 175.140625 C 213.261719 175.574219 215.113281 176.0625 216.921875 176.597656 C 218.730469 177.136719 220.488281 177.722656 222.195312 178.355469 C 223.898438 178.988281 225.546875 179.664062 227.128906 180.390625 C 228.714844 181.113281 230.234375 181.875 231.683594 182.683594 C 233.132812 183.488281 234.511719 184.332031 235.8125 185.210938 C 237.113281 186.09375 238.332031 187.007812 239.472656 187.953125 C 240.613281 188.902344 241.664062 189.878906 242.632812 190.882812 C 243.597656 191.886719 244.476562 192.917969 245.257812 193.96875 C 246.042969 195.023438 246.734375 196.09375 247.332031 197.183594 C 247.925781 198.273438 248.421875 199.378906 248.824219 200.496094 C 249.222656 201.613281 249.523438 202.738281 249.726562 203.871094 C 249.925781 205.007812 250.027344 206.144531 250.027344 207.28125 Z M 250.027344 207.28125 " fill-opacity="1" fill-rule="nonzero"/></g><g clip-path="url(#48c7ae2ad8)"><path fill="#66757f" d="M 250.027344 200.324219 C 250.027344 201.464844 249.925781 202.601562 249.726562 203.734375 C 249.523438 204.867188 249.222656 205.996094 248.824219 207.113281 C 248.421875 208.230469 247.925781 209.332031 247.332031 210.425781 C 246.734375 211.515625 246.042969 212.585938 245.257812 213.640625 C 244.476562 214.691406 243.597656 215.71875 242.632812 216.726562 C 241.664062 217.730469 240.613281 218.707031 239.472656 219.652344 C 238.332031 220.601562 237.113281 221.515625 235.8125 222.394531 C 234.511719 223.277344 233.132812 224.121094 231.683594 224.925781 C 230.234375 225.730469 228.714844 226.496094 227.128906 227.21875 C 225.546875 227.941406 223.898438 228.621094 222.195312 229.253906 C 220.488281 229.886719 218.730469 230.472656 216.921875 231.007812 C 215.113281 231.546875 213.261719 232.03125 211.367188 232.46875 C 209.472656 232.902344 207.542969 233.289062 205.582031 233.617188 C 203.617188 233.949219 201.632812 234.226562 199.621094 234.449219 C 197.609375 234.671875 195.582031 234.835938 193.539062 234.949219 C 191.5 235.0625 189.453125 235.117188 187.402344 235.117188 C 185.351562 235.117188 183.304688 235.0625 181.261719 234.949219 C 179.222656 234.835938 177.195312 234.671875 175.183594 234.449219 C 173.171875 234.226562 171.183594 233.949219 169.222656 233.617188 C 167.261719 233.289062 165.332031 232.902344 163.4375 232.46875 C 161.542969 232.03125 159.6875 231.546875 157.878906 231.007812 C 156.070312 230.472656 154.316406 229.886719 152.609375 229.253906 C 150.902344 228.621094 149.257812 227.941406 147.671875 227.21875 C 146.085938 226.496094 144.570312 225.730469 143.121094 224.925781 C 141.667969 224.121094 140.292969 223.277344 138.992188 222.394531 C 137.691406 221.515625 136.46875 220.601562 135.332031 219.652344 C 134.191406 218.707031 133.136719 217.730469 132.171875 216.726562 C 131.203125 215.71875 130.328125 214.691406 129.542969 213.640625 C 128.757812 212.585938 128.070312 211.515625 127.472656 210.425781 C 126.878906 209.332031 126.378906 208.230469 125.980469 207.113281 C 125.578125 205.996094 125.28125 204.867188 125.078125 203.734375 C 124.878906 202.601562 124.777344 201.464844 124.777344 200.324219 C 124.777344 199.183594 124.878906 198.046875 125.078125 196.914062 C 125.28125 195.78125 125.578125 194.65625 125.980469 193.539062 C 126.378906 192.417969 126.878906 191.316406 127.472656 190.226562 C 128.070312 189.136719 128.757812 188.0625 129.542969 187.011719 C 130.328125 185.957031 131.203125 184.929688 132.171875 183.925781 C 133.136719 182.917969 134.191406 181.941406 135.332031 180.996094 C 136.46875 180.046875 137.691406 179.132812 138.992188 178.253906 C 140.292969 177.371094 141.667969 176.527344 143.121094 175.722656 C 144.570312 174.917969 146.085938 174.152344 147.671875 173.429688 C 149.257812 172.707031 150.902344 172.03125 152.609375 171.398438 C 154.316406 170.761719 156.070312 170.179688 157.878906 169.640625 C 159.6875 169.105469 161.542969 168.617188 163.4375 168.179688 C 165.332031 167.746094 167.261719 167.363281 169.222656 167.03125 C 171.183594 166.699219 173.171875 166.425781 175.183594 166.203125 C 177.195312 165.980469 179.222656 165.8125 181.261719 165.699219 C 183.304688 165.589844 185.351562 165.53125 187.402344 165.53125 C 189.453125 165.53125 191.5 165.589844 193.539062 165.699219 C 195.582031 165.8125 197.609375 165.980469 199.621094 166.203125 C 201.632812 166.425781 203.617188 166.699219 205.582031 167.03125 C 207.542969 167.363281 209.472656 167.746094 211.367188 168.179688 C 213.261719 168.617188 215.113281 169.105469 216.921875 169.640625 C 218.730469 170.179688 220.488281 170.761719 222.195312 171.398438 C 223.898438 172.03125 225.546875 172.707031 227.128906 173.429688 C 228.714844 174.152344 230.234375 174.917969 231.683594 175.722656 C 233.132812 176.527344 234.511719 177.371094 235.8125 178.253906 C 237.113281 179.132812 238.332031 180.046875 239.472656 180.996094 C 240.613281 181.941406 241.664062 182.917969 242.632812 183.925781 C 243.597656 184.929688 244.476562 185.957031 245.257812 187.011719 C 246.042969 188.0625 246.734375 189.136719 247.332031 190.226562 C 247.925781 191.316406 248.421875 192.417969 248.824219 193.539062 C 249.222656 194.65625 249.523438 195.78125 249.726562 196.914062 C 249.925781 198.046875 250.027344 199.183594 250.027344 200.324219 Z M 250.027344 200.324219 " fill-opacity="1" fill-rule="nonzero"/></g><path fill="#e1e8ed" d="M 187.402344 224.679688 C 135.359375 224.679688 128.257812 172.492188 128.257812 158.574219 L 246.546875 158.574219 C 246.546875 165.53125 239.734375 224.679688 187.402344 224.679688 Z M 187.402344 224.679688 " fill-opacity="1" fill-rule="nonzero"/><path fill="#77b255" d="M 246.546875 158.769531 C 246.546875 176.917969 220.066406 191.625 187.402344 191.625 C 154.734375 191.625 128.257812 176.914062 128.257812 158.769531 C 128.257812 140.621094 154.734375 129.386719 187.402344 129.386719 C 220.066406 129.386719 246.546875 140.621094 246.546875 158.769531 Z M 246.546875 158.769531 " fill-opacity="1" fill-rule="nonzero"/><path fill="#a6d388" d="M 239.589844 162.054688 C 239.589844 162.851562 239.503906 163.648438 239.339844 164.441406 C 239.171875 165.234375 238.921875 166.023438 238.585938 166.804688 C 238.253906 167.585938 237.839844 168.359375 237.34375 169.125 C 236.847656 169.886719 236.269531 170.636719 235.617188 171.375 C 234.960938 172.109375 234.234375 172.832031 233.425781 173.535156 C 232.621094 174.238281 231.742188 174.921875 230.792969 175.585938 C 229.84375 176.246094 228.828125 176.886719 227.742188 177.503906 C 226.660156 178.121094 225.511719 178.710938 224.304688 179.273438 C 223.09375 179.839844 221.832031 180.375 220.507812 180.878906 C 219.1875 181.386719 217.816406 181.859375 216.394531 182.304688 C 214.972656 182.746094 213.511719 183.15625 212.003906 183.53125 C 210.496094 183.910156 208.953125 184.25 207.375 184.554688 C 205.792969 184.859375 204.1875 185.128906 202.550781 185.359375 C 200.914062 185.589844 199.257812 185.785156 197.582031 185.941406 C 195.90625 186.097656 194.21875 186.210938 192.515625 186.289062 C 190.816406 186.367188 189.109375 186.40625 187.402344 186.40625 C 185.691406 186.40625 183.988281 186.367188 182.285156 186.289062 C 180.585938 186.210938 178.898438 186.097656 177.21875 185.941406 C 175.542969 185.785156 173.886719 185.589844 172.253906 185.359375 C 170.617188 185.128906 169.007812 184.859375 167.429688 184.554688 C 165.851562 184.25 164.308594 183.910156 162.800781 183.53125 C 161.292969 183.15625 159.828125 182.746094 158.40625 182.304688 C 156.988281 181.859375 155.617188 181.386719 154.292969 180.878906 C 152.972656 180.375 151.707031 179.839844 150.5 179.273438 C 149.292969 178.710938 148.144531 178.121094 147.058594 177.503906 C 145.976562 176.886719 144.960938 176.246094 144.007812 175.585938 C 143.058594 174.921875 142.183594 174.238281 141.375 173.535156 C 140.570312 172.832031 139.839844 172.109375 139.1875 171.375 C 138.53125 170.636719 137.957031 169.886719 137.460938 169.125 C 136.964844 168.359375 136.550781 167.585938 136.21875 166.804688 C 135.882812 166.023438 135.632812 165.234375 135.464844 164.441406 C 135.296875 163.648438 135.214844 162.851562 135.214844 162.054688 C 135.214844 161.257812 135.296875 160.460938 135.464844 159.667969 C 135.632812 158.871094 135.882812 158.085938 136.21875 157.300781 C 136.550781 156.519531 136.964844 155.746094 137.460938 154.984375 C 137.957031 154.222656 138.53125 153.472656 139.1875 152.734375 C 139.839844 151.996094 140.570312 151.277344 141.375 150.574219 C 142.183594 149.871094 143.058594 149.1875 144.007812 148.523438 C 144.960938 147.859375 145.976562 147.21875 147.058594 146.605469 C 148.144531 145.988281 149.292969 145.398438 150.5 144.832031 C 151.707031 144.269531 152.972656 143.734375 154.292969 143.226562 C 155.617188 142.722656 156.988281 142.246094 158.40625 141.804688 C 159.828125 141.359375 161.292969 140.953125 162.800781 140.574219 C 164.308594 140.199219 165.851562 139.859375 167.429688 139.554688 C 169.007812 139.25 170.617188 138.980469 172.253906 138.75 C 173.886719 138.515625 175.542969 138.324219 177.21875 138.167969 C 178.898438 138.011719 180.585938 137.894531 182.285156 137.816406 C 183.988281 137.738281 185.691406 137.699219 187.402344 137.699219 C 189.109375 137.699219 190.816406 137.738281 192.515625 137.816406 C 194.21875 137.894531 195.90625 138.011719 197.582031 138.167969 C 199.257812 138.324219 200.914062 138.515625 202.550781 138.75 C 204.1875 138.980469 205.792969 139.25 207.375 139.554688 C 208.953125 139.859375 210.496094 140.199219 212.003906 140.574219 C 213.511719 140.953125 214.972656 141.359375 216.394531 141.804688 C 217.816406 142.246094 219.1875 142.722656 220.507812 143.226562 C 221.832031 143.734375 223.09375 144.269531 224.304688 144.832031 C 225.511719 145.398438 226.660156 145.988281 227.742188 146.605469 C 228.828125 147.21875 229.84375 147.859375 230.792969 148.523438 C 231.742188 149.1875 232.621094 149.871094 233.425781 150.574219 C 234.234375 151.277344 234.960938 151.996094 235.617188 152.734375 C 236.269531 153.472656 236.847656 154.222656 237.34375 154.984375 C 237.839844 155.746094 238.253906 156.519531 238.585938 157.300781 C 238.921875 158.085938 239.171875 158.871094 239.339844 159.667969 C 239.503906 160.460938 239.589844 161.257812 239.589844 162.054688 Z M 239.589844 162.054688 " fill-opacity="1" fill-rule="nonzero"/><g clip-path="url(#5a407149d7)"><path fill="#5c913b" d="M 197.839844 175.96875 C 196.949219 175.96875 196.058594 175.628906 195.378906 174.953125 C 187.25 166.820312 187.113281 157.957031 194.945312 146.207031 C 197.515625 142.347656 198.074219 138.390625 196.609375 134.457031 C 195.003906 130.15625 191.605469 127.511719 190.585938 127.230469 C 188.660156 127.230469 187.253906 125.691406 187.253906 123.765625 C 187.253906 121.84375 188.960938 120.304688 190.882812 120.304688 C 194.351562 120.304688 199.214844 124.316406 201.957031 129.4375 C 205.550781 136.160156 205.121094 143.488281 200.734375 150.066406 C 193.910156 160.300781 195.40625 165.136719 200.300781 170.027344 C 201.660156 171.386719 201.660156 173.585938 200.300781 174.949219 C 199.621094 175.628906 198.730469 175.96875 197.839844 175.96875 Z M 176.964844 169.011719 C 176.074219 169.011719 175.183594 168.671875 174.503906 167.992188 C 166.375 159.863281 166.238281 150.996094 174.070312 139.246094 C 176.597656 135.453125 177.175781 132 175.789062 128.996094 C 174.242188 125.652344 170.808594 123.882812 169.929688 123.78125 C 168.007812 123.78125 166.488281 122.222656 166.488281 120.300781 C 166.488281 118.378906 168.082031 116.820312 170.007812 116.820312 C 173.476562 116.820312 179 120.210938 181.695312 125.25 C 183.371094 128.378906 185.355469 134.855469 179.859375 143.101562 C 173.035156 153.339844 174.53125 158.175781 179.425781 163.066406 C 180.785156 164.425781 180.785156 166.625 179.425781 167.984375 C 178.746094 168.671875 177.855469 169.011719 176.964844 169.011719 Z M 176.964844 169.011719 " fill-opacity="1" fill-rule="nonzero"/></g><path fill="#98ff99" d="M 182.730469 196.871094 C 184.445312 196.445312 186.582031 196.5625 188.546875 198.183594 C 189.578125 199.035156 190.625 199.117188 191.550781 198.90625 C 192.0625 198.789062 192.503906 198.589844 192.839844 198.394531 C 193.171875 198.199219 193.414062 198.003906 193.515625 197.886719 C 194.097656 197.210938 195.125 197.132812 195.804688 197.710938 C 196.484375 198.289062 196.5625 199.300781 195.980469 199.972656 C 195.304688 200.753906 193.925781 201.65625 192.28125 202.03125 C 190.546875 202.425781 188.410156 202.25 186.464844 200.644531 C 185.453125 199.8125 184.441406 199.753906 183.523438 199.980469 C 182.53125 200.230469 181.71875 200.808594 181.429688 201.085938 C 180.785156 201.703125 179.757812 201.683594 179.132812 201.046875 C 178.507812 200.410156 178.527344 199.394531 179.171875 198.78125 C 179.792969 198.183594 181.09375 197.277344 182.730469 196.871094 Z M 182.730469 196.871094 " fill-opacity="1" fill-rule="nonzero"/><g clip-path="url(#07008ed02b)"><path fill="#98ff99" d="M 177.980469 196.460938 C 178.308594 195.640625 177.898438 194.707031 177.058594 194.371094 C 176.222656 194.035156 175.277344 194.425781 174.949219 195.242188 C 171.816406 203.007812 173.316406 211.910156 178.371094 217.210938 C 178.988281 217.859375 180.019531 217.902344 180.671875 217.304688 C 181.324219 216.703125 181.351562 215.691406 180.730469 215.042969 C 176.675781 210.789062 175.242188 203.246094 177.980469 196.460938 Z M 177.980469 196.460938 " fill-opacity="1" fill-rule="nonzero"/></g><path fill="#98ff99" d="M 198.054688 194.371094 C 197.21875 194.707031 196.808594 195.640625 197.136719 196.460938 C 199.875 203.246094 198.441406 210.789062 194.386719 215.042969 C 193.765625 215.691406 193.792969 216.703125 194.445312 217.304688 C 195.097656 217.902344 196.125 217.859375 196.746094 217.210938 C 201.800781 211.910156 203.300781 203.007812 200.167969 195.242188 C 199.839844 194.425781 198.894531 194.035156 198.054688 194.371094 Z M 198.054688 194.371094 " fill-opacity="1" fill-rule="nonzero"/><path fill="#98ff99" d="M 184.496094 216.320312 C 183.597656 216.320312 182.871094 217.035156 182.871094 217.921875 C 182.871094 218.808594 183.597656 219.527344 184.496094 219.527344 L 190.515625 219.527344 C 191.410156 219.527344 192.140625 218.808594 192.140625 217.921875 C 192.140625 217.035156 191.410156 216.320312 190.515625 216.320312 Z M 184.496094 216.320312 " fill-opacity="1" fill-rule="nonzero"/><path fill="#98ff99" d="M 204.503906 200.953125 L 204.503906 200.890625 C 204.503906 200.003906 205.230469 199.285156 206.125 199.285156 C 207.023438 199.285156 207.75 200.003906 207.75 200.890625 L 207.75 200.953125 C 207.75 201.839844 207.023438 202.558594 206.125 202.558594 C 205.230469 202.558594 204.503906 201.839844 204.503906 200.953125 Z M 204.503906 200.953125 " fill-opacity="1" fill-rule="nonzero"/><path fill="#98ff99" d="M 206.296875 206.238281 C 205.40625 206.144531 204.605469 206.785156 204.511719 207.667969 C 204.363281 209.074219 203.964844 210.429688 203.589844 211.457031 C 203.40625 211.964844 203.230469 212.378906 203.101562 212.664062 C 203.039062 212.800781 202.976562 212.941406 202.910156 213.078125 C 202.507812 213.867188 202.828125 214.832031 203.628906 215.230469 C 204.425781 215.628906 205.398438 215.3125 205.804688 214.53125 C 205.804688 214.53125 205.988281 214.148438 206.074219 213.957031 C 206.226562 213.617188 206.429688 213.132812 206.644531 212.542969 C 207.070312 211.378906 207.554688 209.753906 207.742188 208.003906 C 207.835938 207.121094 207.191406 206.332031 206.296875 206.238281 Z M 206.296875 206.238281 " fill-opacity="1" fill-rule="nonzero"/></svg>